<?xml version="1.0" standalone="no"?>
<!DOCTYPE svg PUBLIC "-//W3C//DTD SVG 1.1//EN" "http://www.w3.org/Graphics/SVG/1.1/DTD/svg11.dtd" >
<svg xmlns="http://www.w3.org/2000/svg">
<metadata>
Created by FontForge 20120731 at Fri Mar 31 11:47:13 2017
 By admin
</metadata>
<defs>
<font id="iconfont" horiz-adv-x="1024" >
  <font-face 
    font-family="iconfont"
    font-weight="500"
    font-stretch="normal"
    units-per-em="1024"
    panose-1="2 0 6 3 0 0 0 0 0 0"
    ascent="896"
    descent="-128"
    x-height="792"
    bbox="8 -63 1113 831"
    underline-thickness="0"
    underline-position="0"
    unicode-range="U+0078-E613"
  />
<missing-glyph 
 />
    <glyph glyph-name=".notdef" 
 />
    <glyph glyph-name=".notdef" 
 />
    <glyph glyph-name=".null" horiz-adv-x="0" 
 />
    <glyph glyph-name="nonmarkingreturn" horiz-adv-x="341" 
 />
    <glyph glyph-name="x" unicode="x" horiz-adv-x="1001" 
d="M281 543q-27 -1 -53 -1h-83q-18 0 -36.5 -6t-32.5 -18.5t-23 -32t-9 -45.5v-76h912v41q0 16 -0.5 30t-0.5 18q0 13 -5 29t-17 29.5t-31.5 22.5t-49.5 9h-133v-97h-438v97zM955 310v-52q0 -23 0.5 -52t0.5 -58t-10.5 -47.5t-26 -30t-33 -16t-31.5 -4.5q-14 -1 -29.5 -0.5
t-29.5 0.5h-32l-45 128h-439l-44 -128h-29h-34q-20 0 -45 1q-25 0 -41 9.5t-25.5 23t-13.5 29.5t-4 30v167h911zM163 247q-12 0 -21 -8.5t-9 -21.5t9 -21.5t21 -8.5q13 0 22 8.5t9 21.5t-9 21.5t-22 8.5zM316 123q-8 -26 -14 -48q-5 -19 -10.5 -37t-7.5 -25t-3 -15t1 -14.5
t9.5 -10.5t21.5 -4h37h67h81h80h64h36q23 0 34 12t2 38q-5 13 -9.5 30.5t-9.5 34.5q-5 19 -11 39h-368zM336 498v228q0 11 2.5 23t10 21.5t20.5 15.5t34 6h188q31 0 51.5 -14.5t20.5 -52.5v-227h-327z" />
    <glyph glyph-name="user" unicode="&#xe600;" 
d="M631 343q55 33 88 90t33 124q0 103 -72 176t-173.5 73t-173 -73t-71.5 -176q0 -68 34 -126t91 -91q-113 -36 -187.5 -129t-85.5 -214q-1 -14 7.5 -24t22 -11.5t23.5 7t11 22.5q12 130 107.5 217.5t226.5 87.5t226.5 -87.5t107.5 -217.5q1 -13 10.5 -21.5t21.5 -8.5h3
q14 2 22.5 12t7.5 24q-11 123 -88 217t-192 129zM326 557q0 76 53 130t128 54t127.5 -54t52.5 -130t-52.5 -130t-127.5 -54t-128 54t-53 130z" />
    <glyph glyph-name="home" unicode="&#xe608;" 
d="M512 793l-440 -440l29 -29l91 91v-411h640v411l91 -91l29 29zM592 44h-160v280h160v-280zM792 44h-160v320h-240v-320h-160v411l280 280l280 -280v-411z" />
    <glyph glyph-name="search" unicode="&#xe611;" 
d="M923 13l-254 254q76 91 76 209q0 89 -43.5 164t-118.5 118.5t-163.5 43.5t-164 -43.5t-119 -118.5t-43.5 -163.5t43.5 -163.5t119 -119t163.5 -44q122 0 214 80l253 -254q8 -8 18.5 -8t18 7.5t7.5 18.5t-7 19v0zM419 202q-114 0 -194 80.5t-80 194t80 194t194 80.5
t194 -80.5t80 -194t-80 -194t-194 -80.5z" />
    <glyph glyph-name="wechat" unicode="&#xe60e;" 
d="M333 729q-60 -11 -110 -40.5t-80.5 -69t-45 -87.5t-9 -94t33.5 -90.5t77 -75.5q8 -6 7 -12.5t-13 -42.5l-14 -42l101 54l27 -7q48 -12 88 -12h14l-5 19q-19 71 13.5 138t103 108.5t156.5 41.5h24l-5 18q-19 66 -74.5 116t-132.5 71t-156 7zM311 602q20 -13 21 -36.5
t-18 -36.5q-20 -13 -40.5 -5t-26.5 26.5t5 39.5q9 14 27.5 17.5t31.5 -5.5zM525 602q15 -10 18.5 -26.5t-3 -30.5t-21.5 -21t-32 0q-27 10 -29 38t22 42q10 5 23 4.5t22 -6.5zM621 495q-93 -17 -151 -80.5t-54 -144.5q2 -53 32.5 -98.5t78.5 -72.5t108 -37t121 8l19 5
l40 -22q41 -22 42 -20q1 3 -10 35q-9 30 -8.5 35.5t13.5 14.5q47 34 68 80t16 91t-31 87.5t-67 72.5t-98 43.5t-119 2.5zM616 378q9 -5 12.5 -16.5t-0.5 -21.5q-7 -22 -31 -23t-32 20q-10 23 10 39.5t41 1.5zM790 375q13 -12 11.5 -29t-16.5 -25q-24 -12 -41.5 5.5
t-6.5 39.5q8 15 25 17.5t28 -8.5zM558 94z" />
    <glyph glyph-name="coupon" unicode="&#xe604;" 
d="M872 92h-720q-19 0 -32 13t-13 31v136q0 9 6.5 15.5t16.5 6.5v0q0 1 -0.5 2l-0.5 1q30 7 49 31.5t19 55.5t-19 55.5t-49 31.5l0.5 1t0.5 2q-10 0 -16.5 6.5t-6.5 16.5v135q0 18 13 31.5t32 13.5h720q19 0 32 -13.5t13 -31.5v-135q0 -10 -6.5 -16.5t-16.5 -6.5
q0 -1 0.5 -2l0.5 -1q-30 -7 -49 -31.5t-19 -55.5t19 -55.5t49 -31.5l-0.5 -1t-0.5 -2q10 0 16.5 -6.5t6.5 -15.5v0v-136q0 -18 -13 -31t-32 -13v0zM872 257q-40 14 -65 49t-25 78t25 78t65 49v98q0 9 -6.5 16t-15.5 7h-676q-9 0 -15.5 -7t-6.5 -16v-98q40 -14 65 -49t25 -78
t-25 -78t-65 -49v0v-98q0 -9 6.5 -16t15.5 -7h676q9 0 15.5 7t6.5 16v98zM613 294h-79v-56q0 -5 -3 -8.5t-8 -3.5h-22q-5 0 -8 3.5t-3 8.5v56h-79q-5 0 -8 3.5t-3 7.5v23q0 4 3 7.5t8 3.5h79v45h-79q-5 0 -8 3.5t-3 7.5v23q0 4 3 7.5t8 3.5h62l-70 76q-7 8 0 15l15 16
q7 8 14 0l79 -87l81 88q7 8 14 0l15 -16q7 -8 0 -15l-70 -77h62q5 0 8 -3.5t3 -7.5v-23q0 -4 -3 -7.5t-8 -3.5h-79v-45h79q5 0 8 -3.5t3 -7.5v-23q0 -4 -3 -7.5t-8 -3.5v0zM613 294z" />
    <glyph glyph-name="hotline" unicode="&#xe612;" 
d="M845 431q-37 0 -84 11.5t-64 28.5q-15 15 -22 50q-5 24 -14 28q-60 26 -150 26q-89 0 -148 -26q-9 -4 -14 -28q-6 -34 -21 -49q-17 -17 -65 -29q-45 -12 -83 -12q-42 0 -58 17q-26 26 -29 62q-3 42 29 74q65 65 172 100q101 32 216 32q117 0 218 -33q108 -35 174 -100
q31 -36 29 -73t-29 -63q-16 -16 -57 -16zM511 617q99 0 167 -29q14 -6 22.5 -17.5t11 -20t4.5 -21.5q5 -22 11 -28q8 -9 46.5 -18.5t71.5 -9.5q21 0 28 4q7 8 12 18.5t3 27t-16 30.5q-57 57 -153 89t-209 32q-112 0 -207 -31.5t-151 -88.5q-18 -18 -17 -41q2 -20 17 -35
q6 -4 28 -4q33 0 71 9.5t47 17.5q6 6 10 28q2 14 4.5 22t11 19.5t22.5 17.5q67 29 165 29v0zM786 46h-548q-44 0 -73.5 31.5t-27.5 75.5q1 10 3 26t15.5 56.5t35.5 75.5q43 69 113 108q86 49 208 49t208 -49q70 -39 113 -108q22 -35 35.5 -75.5t15.5 -56.5t3 -26
q2 -44 -27.5 -75.5t-73.5 -31.5zM512 426q-198 0 -285 -136q-19 -31 -31 -67.5t-14 -50.5l-3 -21q-1 -26 16 -44t43 -18h548q26 0 43 18t16 44q-1 8 -3 21.5t-14 50t-31 67.5q-87 136 -285 136v0zM512 131q-52 0 -89.5 37t-37.5 89.5t37.5 89.5t89.5 37t89.5 -37t37.5 -89.5
t-37.5 -89.5t-89.5 -37zM512 342q-35 0 -59.5 -25t-24.5 -59.5t24.5 -59.5t59.5 -25t59.5 25t24.5 59.5t-24.5 59.5t-59.5 25z" />
    <glyph glyph-name="cash" unicode="&#xe603;" 
d="M709 547q-2 1 -37 19l6 6q38 36 51 71q3 9 9 31q9 55 -24 83q-46 38 -106 14q-4 -2 -7 0q-37 35 -88.5 35t-88.5 -34q-3 -3 -7 -1q-30 13 -62 7q-33 -7 -53 -31.5t-16 -57.5q8 -61 49 -106q1 -1 17 -18l-1.5 -1t-2.5 -1q-105 -48 -171.5 -143.5t-74.5 -212.5
q-6 -79 11 -129q16 -50 56 -83t92 -33h252h253q79 0 125 68q16 22 27 73q1 4 2 4.5t1.5 0.5t1 7t0.5 23q0 97 -13 147q-47 173 -201 262zM880 135q-7 -49 -21 -70q-20 -29 -54.5 -45t-71.5 -17h-222.5h-222.5q-49 0 -88 26t-50 70q-12 46 -6 126q7 102 85 195t177 140
q1 0 -8 8.5t-19.5 18t-12.5 12.5q-21 22 -31 41t-13 45q-7 52 48 63q9 2 24 -2t26 -8.5t12 -3.5q32 31 78 30.5t78 -31.5q2 -2 6 0q20 8 33 11.5t28.5 1t28.5 -14.5q15 -12 18 -25.5t-1 -33.5q-3 -8 -13.5 -26t-16.5 -27q-18 -24 -56 -61l15 -7t32 -15.5t21 -11.5
q78 -60 118.5 -107t59.5 -119q7 -26 10 -40t8 -41t4 -41t-3 -41v0v0zM458 427l-28 29h-41v-18t103 -106h-103v-41h103v-41h-103v-41h103v-82h41v82h103v41h-103v41h103v41h-103l103 106v18h-41q-36 -35 -44 -43q-1 -1 -8 -8.5t-16.5 -17l-14.5 -14.5z" />
    <glyph glyph-name="iconfont31qiandao" unicode="&#xe602;" 
d="M857 598l-132 132q-23 23 -55 23q-28 0 -47 -18l-437 -438q-1 -1 -1 -2t-1 -1l-42 -248q-4 -14 7 -24q7 -7 17 -7h6l247 43q3 -1 5 1l438 437q18 19 18 47q0 32 -23 55zM197 70l28 181l152 -152zM741 453l-324 -324l-161 161l324 324zM620 655l42 41q5 5 13.5 4.5
t14.5 -6.5l131 -131q7 -6 7 -15q0 -8 -5 -13l-42 -42z" />
    <glyph glyph-name="goods" unicode="&#xe60f;" 
d="M141 13h325v325h-325v-325zM187 291h232v-232h-232v232zM558 755v-325h325v325h-325zM837 477h-232v232h232v-232zM558 13h325v325h-325v-325zM605 291h232v-232h-232v232zM141 430h325v325h-325v-325zM187 709h232v-232h-232v232z" />
    <glyph glyph-name="success" unicode="&#xe60b;" horiz-adv-x="1125" 
d="M437 333l-198 187l-231 -182l410 -401q11 16 31 45t89.5 117.5t144.5 176t192 208.5t238 227v120q-87 -51 -190 -122.5t-180.5 -130t-157.5 -123t-107 -87t-41 -35.5v0z" />
    <glyph glyph-name="order" unicode="&#xe605;" 
d="M780 762h-49q-11 0 -20 -6t-9 -16t9 -18.5t20 -8.5h49q22 0 35.5 -13.5t13.5 -35.5v-565q0 -22 -13.5 -35.5t-35.5 -13.5h-529q-23 0 -42 14t-19 35v565q0 22 13.5 35.5t35.5 13.5h61q19 0 19 27q0 22 -19 22h-61q-50 0 -74.5 -27t-24.5 -72v-559q0 -47 27.5 -75
t76.5 -28h531q50 0 76.5 26t26.5 77v559q0 44 -26 71.5t-72 27.5v0zM300 541q0 -10 7.5 -17.5t17.5 -7.5h369q10 0 17.5 7.5t7.5 17.5t-7.5 17.5t-17.5 7.5h-369q-10 0 -17.5 -7.5t-7.5 -17.5v0zM693 430h-368q-10 0 -17.5 -7.5t-7.5 -17.5t7.5 -17.5t17.5 -7.5h369
q10 0 17.5 7.5t7.5 17.5q0 11 -8 18t-18 7v0zM693 283h-368q-10 0 -17.5 -7.5t-7.5 -17.5t7.5 -17.5t17.5 -7.5h369q10 0 17.5 7.5t7.5 17.5q0 11 -8 18t-18 7v0zM425 701h171q15 0 26 12.5t11 30t-11 30t-27 12.5h-170q-16 0 -27 -12.5t-11 -30t11 -30t27 -12.5v0z" />
    <glyph glyph-name="coin" unicode="&#xe60c;" 
d="M916 673q5 10 5 19q0 37 -67.5 63t-162.5 26t-162.5 -26t-67.5 -63q0 -9 5 -19q-5 -2 -5 -8v-146q-57 14 -124 14q-96 0 -163.5 -26t-67.5 -63q0 -9 6 -18q-6 -3 -6 -8v-355q0 -4 4 -7q15 -31 79 -51.5t148 -20.5t147.5 20.5t78.5 51.5q4 3 4 7v59q56 -14 124 -14
q84 0 147.5 20.5t78.5 51.5q4 3 4 7v478q0 6 -5 8zM336.5 497q80.5 0 138 -15.5t57.5 -37.5t-57.5 -37.5t-138 -15.5t-137.5 15.5t-57 37.5t57 37.5t137.5 15.5zM142 397q68 -41 195 -41t195 41v-77q0 -22 -57.5 -37.5t-138 -15.5t-137.5 15.5t-57 37.5v77zM142 273
q68 -41 195 -41t195 41v-77q0 -22 -57.5 -37.5t-137.5 -15.5q-53 0 -98 7t-71 19.5t-26 26.5v77zM337 19q-53 0 -98 7t-71 19.5t-26 26.5v77q68 -41 195 -41t195 41v-77q0 -22 -57.5 -37.5t-137.5 -15.5zM886 196q0 -22 -57 -37.5t-138 -15.5q-70 0 -124 12v91
q56 -14 124 -14q127 0 195 41v-77zM886 320q0 -22 -57 -37.5t-138 -15.5q-70 0 -124 12v90q56 -13 124 -13q127 0 195 41v-77zM886 444q0 -22 -57 -37.5t-138 -15.5q-70 0 -124 12v15q0 5 -5 8q5 9 5 18q0 38 -71 64v13q68 -41 195 -41t195 41v-77zM886 568q0 -22 -57 -37.5
t-138 -15.5t-138 15.5t-57 37.5v77q68 -42 195 -42t195 42v-77zM691 639q-53 0 -98 7t-71 19.5t-26 26.5q0 22 57 37.5t138 15.5q53 0 98 -7t71 -19.5t26 -26.5q0 -22 -57 -37.5t-138 -15.5z" />
    <glyph glyph-name="cup" unicode="&#xe610;" 
d="M930 619v64v1q-1 17 -11.5 27.5t-26.5 11.5h-1h-127v29q0 15 -10.5 25.5t-25.5 10.5h-444q-15 0 -25.5 -10.5t-10.5 -25.5v-29h-115h-1q-17 -1 -27 -11.5t-12 -27.5v-1v-64q2 -4 0.5 -15t2.5 -28t8.5 -36.5t17.5 -40t30 -37.5t46 -31t65 -20q21 -58 66 -100.5t105 -60.5
v-104l-140 -67h-2q-31 -18 -31 -47v-21v-2q1 -16 12 -25t28 -9h411q16 0 27 9t12 25v2v21q0 29 -31 47h-1l-137 65v107q58 18 102 60t65 99q89 10 136 67q23 26 34 61t11.5 52t-0.5 29zM252 453q-27 7 -47.5 19t-33 26t-21 31t-12 30.5t-5 28t-1.5 20v9.5v1v64q0 1 1 1v1h1
h114v-186q0 -11 1 -24q0 -1 1 -10q0 -1 0.5 -5t1.5 -6zM712 32v-18v0h-411h-1v18q0 6 11 13l144 68h103l143 -68q11 -7 11 -13zM543 240v-88h-70v88h70zM506 279q-78 0 -138 49t-76 124l-1 7q-2 7 -2 13q-1 4 -1 6q-1 12 -1 20v251h438v-251q0 -9 -1 -20v-6q-1 -7 -3 -14
l-1 -6q-16 -75 -76 -124t-138 -49zM856 502q-34 -40 -96 -51q0 1 2 13q0 1 0.5 4t0.5 5q1 13 1 25v186h126v0h1v0v-2v-64v-1q1 -8 1 -20t-9 -42.5t-27 -52.5zM455 395q-15 6 -25.5 15.5t-15.5 18t-7.5 18t-2.5 13.5v7v199q0 8 -6 14t-14 6t-13.5 -6t-5.5 -14v-198
q-2 -27 15.5 -60t60.5 -49q4 -2 7 -2q14 0 19 13q2 8 -1 15t-11 10z" />
    <glyph glyph-name="integral" unicode="&#xe60d;" 
d="M506.5 799q-113.5 0 -209.5 -56t-152 -152.5t-56 -209.5t56 -209.5t152 -152.5t209.5 -56t210 56t152.5 152.5t56 209.5t-56 209.5t-152.5 152.5t-210 56zM507 8q-101 0 -187 50t-136.5 136t-50.5 187t50.5 187t136.5 136t187 50t187 -50t136 -136t50 -187t-50 -187
t-136 -136t-187 -50zM513 374h153v-21h32v225h-218v-225h33v21zM513 549h153v-145h-153v145zM616 305q41 -49 79 -106l30 23q-43 56 -83 102zM435 219q15 -12 25 -23q45 47 94 110l-28 20q-38 -54 -91 -107zM469 347q-30 34 -57 60l-17 -16v60h64v31h-64v71q36 3 63 6l-8 33
q-66 -10 -154 -15q5 -16 7 -31q32 2 60 4v-68h-69v-31h65q-27 -84 -67 -144q8 -18 15 -37q33 47 56 111v-192h32v193q26 -28 49 -56z" />
    <glyph glyph-name="exit" unicode="&#xe607;" 
d="M512 -38q-81 0 -154 31q-71 29 -125.5 83t-84.5 124q-32 72 -32 151q0 96 46 181q44 82 120 136q10 7 23 5t20.5 -12.5t5 -22.5t-12.5 -20q-65 -46 -101 -114q-39 -72 -39 -153q0 -136 98 -232t236 -96t236 96t98 232q0 82 -39 153q-36 68 -101 114q-11 8 -13 20
t5.5 22.5t20 12.5t23.5 -5q76 -54 120 -136q46 -85 46 -181q0 -79 -32 -151q-30 -70 -84.5 -124t-125.5 -83q-74 -31 -154 -31v0v0v0zM521 385q-13 0 -22 8.5t-9 21.5v360q0 13 9 22t22 9t22 -9t9 -22v-360q0 -13 -9 -21.5t-22 -8.5v0v0zM521 385z" />
    <glyph glyph-name="friend" unicode="&#xe606;" 
d="M883 276q-50 71 -127 101q34 24 55 61q24 44 24 94q0 77 -52 131.5t-125 54.5q-10 0 -17.5 -7.5t-7.5 -18t7.5 -18t17.5 -7.5q52 0 89.5 -39.5t37.5 -95.5t-37.5 -96t-89.5 -40q-10 0 -17.5 -7t-7.5 -18v0q0 -10 7.5 -17.5t17.5 -7.5q94 0 161 -71t67 -172q0 -10 7 -17.5
t17.5 -7.5t18 7.5t7.5 17.5q0 96 -53 173zM623 318q-39 28 -85 44q48 29 75.5 78t27.5 106q0 88 -63 151t-151.5 63t-151.5 -63t-63 -151q0 -62 33 -114q27 -44 71 -70q-46 -16 -87 -45q-43 -31 -76 -74q-68 -91 -68 -204q0 -10 7.5 -17.5t18 -7.5t17.5 7.5t7 17.5
q0 120 85 205q85 86 204 86q4 -1 8 0l2 1q116 -3 198 -86q85 -85 85 -205q0 -10 7.5 -17.5t18 -7.5t17.5 7.5t7 17.5q0 113 -68 204q-32 43 -76 74zM427 710q68 0 116 -48t48 -116t-48 -116.5t-116 -48.5t-116.5 48.5t-48.5 116.5t48.5 116t116.5 48z" />
    <glyph glyph-name="cellphone" unicode="&#xe601;" 
d="M723 806h-422q-36 0 -60 -24.5t-24 -59.5v-676q0 -35 24 -59.5t60 -24.5h422q36 0 60 24.5t24 59.5v676q0 35 -24 59.5t-60 24.5zM301 755h422q15 0 24.5 -9.5t9.5 -23.5v-62h-490v62q0 14 9.5 23.5t24.5 9.5zM757 609v-430h-490v430h490zM723 13h-422q-15 0 -24.5 9.5
t-9.5 23.5v82h490v-81q0 -15 -9.5 -24.5t-24.5 -9.5zM473 72q0 -18 11.5 -30t27.5 -12t27.5 12t11.5 30v0q0 17 -11.5 29.5t-27.5 12.5t-27.5 -12.5t-11.5 -29.5v0z" />
    <glyph glyph-name="activity" unicode="&#xe609;" 
d="M860 771q-19 13 -40 -7q-2 -2 -7 -6q-19 -19 -29.5 -27t-32.5 -17t-46 -8t-64.5 8.5t-93.5 25.5q-75 25 -149 22q-60 -2 -118 -22q-65 -23 -104 -56l-4 -4q-17 -11 -9 -28l284 -642q4 -9 12.5 -12t17.5 0.5t12 12.5t-1 17l-131 298l2 4q6 11 9.5 17t10 17t12 17t14.5 15
t19 14t22.5 11.5t28 9.5t33.5 5.5t40.5 2t48.5 -2.5q47 -4 92 16q3 1 5 2q41 19 76 58q58 62 89 153q12 33 15 59q4 36 -14 47v0v0zM812 666q-26 -68 -68 -116q-66 -76 -143 -69q-133 12 -204 -35q-37 -24 -63 -68l-123 276q38 27 86 44q116 40 235 0q138 -47 210 -33
q43 8 83 42q-5 -19 -13 -41v0v0zM814 20q-5 0 -9 3l-102 54l-103 -54q-11 -6 -20.5 1t-7.5 19l20 114l-83 81q-9 8 -5.5 19.5t15.5 13.5l115 17l51 104q6 10 17.5 10t17.5 -10l51 -104l115 -17q12 -2 15.5 -13.5t-5.5 -19.5l-83 -81l20 -114q2 -12 -8 -19q-5 -4 -11 -4z
M563 238l63 -60q7 -7 5 -17l-15 -86l78 40q9 5 17 0l78 -40l-15 86q-2 10 5 17l63 60l-86 13q-10 1 -15 11l-38 78l-39 -78q-5 -10 -15 -11zM168 21q-4 0 -7 2q-6 5 -5 12l11 64l-47 46q-5 5 -2.5 12.5t9.5 8.5l65 10l29 58q3 7 11 7t11 -7l29 -58l65 -10q7 -1 9.5 -8.5
t-3.5 -12.5l-46 -46l11 -64q1 -7 -5 -12t-13 -1l-58 30l-58 -30q-3 -1 -6 -1v0zM232 79q3 0 6 -2l41 -21l-8 46q-1 6 4 11l33 32l-46 7q-7 1 -9 7l-21 41l-21 -41q-3 -6 -9 -7l-46 -7l33 -32q5 -5 4 -11l-8 -46l41 21q3 2 6 2zM166 484l21 -42l46 -6l-34 -33l8 -45l-41 21
l-41 -21l8 45l-33 33l46 6z" />
    <glyph glyph-name="shop" unicode="&#xe60a;" 
d="M855 342q2 -3 2 -7v-288q0 -26 -22 -44.5t-47 -18.5h-552q-25 0 -47 18.5t-22 44.5v288q0 4 2 7q-26 30 -41.5 75.5t-15.5 85.5l166 281h469l165 -281q0 -40 -15.5 -85.5t-41.5 -75.5v0zM209 47q0 -7 8.5 -14t18.5 -7h552q10 0 18.5 7t8.5 14v265q-13 -5 -27 -5
q-61 0 -99.5 28.5t-38.5 83.5q0 -55 -38.5 -84t-99.5 -29t-99.5 29t-38.5 84q0 -55 -38.5 -83.5t-99.5 -28.5q-14 0 -27 5v-265v0zM723 742h-422l-147 -250q3 -50 28.5 -96.5t53.5 -46.5q16 0 30.5 2.5t30.5 9.5t26 22t10 36q0 18 12 30t29 12t29 -12t12 -30q0 -22 10 -37
t26 -21.5t30.5 -9.5t30.5 -3t30.5 3t30.5 9.5t25.5 21.5t9.5 37q0 18 12.5 30t29.5 12t29 -12t12 -30q0 -21 9.5 -36t25.5 -22t31 -9.5t31 -2.5q28 0 53.5 46.5t28.5 96.5l-147 250v0zM786 510h-548q-9 0 -15 6.5t-6 15t6 14.5t15 6h548q9 0 15 -6t6 -14.5t-6 -15t-15 -6.5z
" />
    <glyph glyph-name="address" unicode="&#xe613;" 
d="M512 640q-54 0 -92.5 -38t-38.5 -91t38.5 -90.5t92.5 -37.5t92.5 37.5t38.5 90.5t-38.5 91t-92.5 38zM512.5 439q-31.5 0 -54 22t-22.5 53t22.5 53t54 22t54 -22t22.5 -53t-22.5 -53t-54 -22zM819 492q0 125 -90 213t-217 88t-217 -88t-90 -213q0 -30 9 -65.5t21.5 -66.5
t35 -71.5t39 -67.5t45.5 -68t43.5 -60t43 -56t33.5 -44q14 -18 37 -18t37 18q5 7 33.5 44t43 56t43.5 60t45.5 68t39 67.5t35 71.5t21.5 66.5t9 65.5zM517 38q-2 -3 -5 -3l-5 3q-45 55 -70.5 87.5t-64.5 88t-60 96t-37 90t-16 92.5q-1 103 73.5 176t179.5 73t179 -73
t74 -176q0 -53 -18 -108.5t-56 -115.5t-76 -109.5t-98 -120.5z" />
  </font>
</defs>
</svg>
